<svg width="32" height="32" viewBox="0 0 32 32" fill="none" xmlns="http://www.w3.org/2000/svg">
<path d="M9.71863 5.44832C9.61784 5.20343 9.61831 4.92856 9.71994 4.68401C9.82156 4.43947 10.016 4.24521 10.2607 4.14387C10.5054 4.04253 10.7802 4.04237 11.025 4.14343C11.2698 4.24449 11.4645 4.43851 11.5664 4.68294L12.523 6.99257C12.5736 7.11396 12.5998 7.24413 12.6 7.37565C12.6002 7.50716 12.5745 7.63743 12.5243 7.75899C12.4741 7.88055 12.4005 7.99102 12.3075 8.08407C12.2146 8.17712 12.1042 8.25092 11.9827 8.30125C11.8612 8.35158 11.7309 8.37745 11.5994 8.37737C11.4679 8.3773 11.3377 8.35128 11.2163 8.30082C11.0948 8.25035 10.9845 8.17642 10.8917 8.08327C10.7988 7.99011 10.7253 7.87956 10.6753 7.75794L9.71863 5.44832ZM2.683 13.5662L4.99263 14.5229C5.11401 14.5736 5.24419 14.5997 5.37571 14.5999C5.50722 14.6002 5.63749 14.5745 5.75905 14.5243C5.88061 14.4741 5.99108 14.4004 6.08413 14.3075C6.17718 14.2145 6.25098 14.1041 6.30131 13.9826C6.35164 13.8611 6.37751 13.7309 6.37743 13.5994C6.37736 13.4679 6.35134 13.3377 6.30087 13.2162C6.25041 13.0948 6.17648 12.9845 6.08332 12.8916C5.99017 12.7988 5.87962 12.7252 5.758 12.6752L3.44837 11.7187C3.32676 11.6667 3.19605 11.6394 3.06381 11.6383C2.93156 11.6372 2.80042 11.6624 2.67796 11.7123C2.5555 11.7623 2.44417 11.836 2.35039 11.9292C2.25662 12.0225 2.18228 12.1334 2.13167 12.2556C2.08106 12.3778 2.05518 12.5088 2.05554 12.641C2.0559 12.7733 2.08249 12.9041 2.13376 13.026C2.18504 13.1479 2.25998 13.2584 2.35426 13.3512C2.44854 13.4439 2.56027 13.5171 2.683 13.5663V13.5662ZM26.625 14.5993C26.7562 14.5993 26.8862 14.5733 27.0074 14.5229L29.317 13.5662C29.4397 13.5169 29.5515 13.4438 29.6457 13.3511C29.74 13.2583 29.815 13.1478 29.8662 13.0259C29.9175 12.904 29.9441 12.7731 29.9445 12.6409C29.9448 12.5086 29.9189 12.3776 29.8683 12.2555C29.8177 12.1333 29.7434 12.0224 29.6496 11.9291C29.5558 11.8359 29.4445 11.7621 29.322 11.7122C29.1996 11.6623 29.0684 11.6371 28.9362 11.6382C28.804 11.6393 28.6732 11.6666 28.5516 11.7186L26.242 12.6752C26.0282 12.7637 25.8517 12.9237 25.7427 13.1278C25.6336 13.3319 25.5987 13.5675 25.6438 13.7944C25.689 14.0214 25.8115 14.2257 25.9904 14.3724C26.1693 14.5192 26.3936 14.5994 26.625 14.5993ZM20.0182 8.29919C20.1396 8.34955 20.2696 8.3755 20.401 8.37555C20.5323 8.3756 20.6624 8.34975 20.7837 8.29948C20.9051 8.24921 21.0153 8.1755 21.1082 8.08258C21.201 7.98966 21.2746 7.87934 21.3248 7.75794L22.2814 5.44832C22.3822 5.20343 22.3817 4.92856 22.2801 4.68401C22.1784 4.43947 21.984 4.24521 21.7393 4.14387C21.4947 4.04253 21.2198 4.04237 20.975 4.14343C20.7302 4.24449 20.5355 4.43851 20.4336 4.68294L19.477 6.99257C19.4267 7.1139 19.4009 7.24394 19.4009 7.37528C19.4009 7.50661 19.4267 7.63665 19.477 7.75799C19.5273 7.87932 19.6009 7.98956 19.6938 8.08242C19.7867 8.17528 19.8969 8.24894 20.0182 8.29919ZM31 19.9999C31 20.2652 30.8946 20.5195 30.7071 20.7071C30.5196 20.8946 30.2652 20.9999 30 20.9999H23.2337L23.2309 21.0002L23.2272 20.9999H2C1.73478 20.9999 1.48043 20.8946 1.29289 20.7071C1.10536 20.5195 1 20.2652 1 19.9999C1 19.7347 1.10536 19.4804 1.29289 19.2928C1.48043 19.1053 1.73478 18.9999 2 18.9999H7.55963C7.41761 17.8073 7.52997 16.5981 7.88928 15.4521C8.24859 14.306 8.8467 13.2491 9.64419 12.351C10.4417 11.4529 11.4204 10.7341 12.516 10.2418C13.6115 9.74946 14.7989 9.49492 16 9.49492C17.2011 9.49492 18.3885 9.74946 19.484 10.2418C20.5796 10.7341 21.5583 11.4529 22.3558 12.351C23.1533 13.2491 23.7514 14.306 24.1107 15.4521C24.47 16.5981 24.5824 17.8073 24.4404 18.9999H30C30.2652 18.9999 30.5196 19.1053 30.7071 19.2928C30.8946 19.4804 31 19.7347 31 19.9999ZM9.57725 18.9999H22.4228C22.5669 18.073 22.5088 17.1259 22.2523 16.2235C21.9958 15.3212 21.547 14.4851 20.9368 13.7726C20.3266 13.0601 19.5694 12.4881 18.7172 12.096C17.865 11.7038 16.9381 11.5008 16 11.5008C15.0619 11.5008 14.135 11.7038 13.2828 12.096C12.4306 12.4881 11.6734 13.0601 11.0632 13.7726C10.453 14.4851 10.0042 15.3212 9.7477 16.2235C9.4912 17.1259 9.43305 18.073 9.57725 18.9999ZM26 23.9999H6C5.73478 23.9999 5.48043 24.1053 5.29289 24.2928C5.10536 24.4804 5 24.7347 5 24.9999C5 25.2652 5.10536 25.5195 5.29289 25.7071C5.48043 25.8946 5.73478 25.9999 6 25.9999H26C26.2652 25.9999 26.5196 25.8946 26.7071 25.7071C26.8946 25.5195 27 25.2652 27 24.9999C27 24.7347 26.8946 24.4804 26.7071 24.2928C26.5196 24.1053 26.2652 23.9999 26 23.9999Z" fill="#C13D24"/>
</svg>
